<svg xmlns="http://www.w3.org/2000/svg" xmlns:xlink="http://www.w3.org/1999/xlink" width="259.615" height="163.616" viewBox="0 0 259.615 163.616">
  <defs>
    <linearGradient id="linear-gradient" x1="0.5" x2="0.5" y2="1" gradientUnits="objectBoundingBox">
      <stop offset="0" stop-color="#e2287e"/>
      <stop offset="1" stop-color="#326aea"/>
    </linearGradient>
    <clipPath id="clip-path">
      <rect id="Rechteck_441" data-name="Rechteck 441" width="60.045" height="60.045" fill="url(#linear-gradient)"/>
    </clipPath>
    <clipPath id="clip-path-2">
      <rect id="Rechteck_443" data-name="Rechteck 443" width="32.296" height="41.941" fill="none" stroke="#fff" stroke-width="4"/>
    </clipPath>
  </defs>
  <g id="Gruppe_269" data-name="Gruppe 269" transform="translate(-101.243 -159.051)">
    <path id="Pfad_36" data-name="Pfad 36" d="M913.566,293.805,824.183,226H688.074L884.835,345.672Z" transform="translate(-586.83 -66.949)" fill="#7fe6dc"/>
    <path id="Pfad_53" data-name="Pfad 53" d="M1148.066,383.868l28.851,34.236v58.3l-31.436-.186-39.215-51.437Z" transform="translate(-816.058 -153.739)" fill="#645bce"/>
    <g id="Gruppe_13" data-name="Gruppe 13" transform="translate(280.103 221.176)">
      <g id="Gruppe_6" data-name="Gruppe 6" clip-path="url(#clip-path)">
        <path id="Pfad_32" data-name="Pfad 32" d="M47.85,21.738,59.644,34.9A30.015,30.015,0,1,0,40.686,58.089L30.022,47.783Z" transform="translate(0 0)" fill="#73dfd4"/>
        <path id="Pfad_33" data-name="Pfad 33" d="M73.433,44.889,61.64,31.722,43.812,57.767,54.476,68.073A30.056,30.056,0,0,0,73.433,44.889" transform="translate(-13.79 -9.984)" fill="#4ab7ac"/>
        <path id="Pfad_34" data-name="Pfad 34" d="M50.141,24.735c-8.6-5.982-14.754,4.443-14.754,4.443s-6.153-10.425-14.755-4.443a8.978,8.978,0,0,0-3.589,7.178c0,5.355,5.806,11.48,10.619,16.214a92.972,92.972,0,0,0,7.725,6.859,92.843,92.843,0,0,0,7.723-6.859c4.814-4.734,10.62-10.859,10.62-16.214a8.98,8.98,0,0,0-3.589-7.178" transform="translate(-5.364 -7.202)" fill="#fff"/>
      </g>
    </g>
    <g id="Gruppe_14" data-name="Gruppe 14" transform="translate(264.041 161.205)">
      <g id="Gruppe_9" data-name="Gruppe 9" clip-path="url(#clip-path-2)">
        <path id="Pfad_42" data-name="Pfad 42" d="M31.517,38.536c-8.751-4.811-15.008,3.575-15.008,3.575S10.25,33.725,1.5,38.536" transform="translate(-0.36 -2.247)" fill="none" stroke="#fff" stroke-linecap="round" stroke-miterlimit="10" stroke-width="4"/>
        <path id="Pfad_43" data-name="Pfad 43" d="M5.047,27.945" transform="translate(-1.213 -3.209)" fill="none" stroke="#fff" stroke-linecap="round" stroke-miterlimit="10" stroke-width="4"/>
        <path id="Pfad_44" data-name="Pfad 44" d="M27.166,15.474c-5.039-3.385-8.642,2.514-8.642,2.514s-3.6-5.9-8.642-2.514" transform="translate(-2.376 -0.875)" fill="none" stroke="#fff" stroke-linecap="round" stroke-miterlimit="10" stroke-width="4"/>
        <path id="Pfad_45" data-name="Pfad 45" d="M27.669,4.46c-2.635-3.514-5.58.827-5.58.827s-1.441-5.379-4.94-3.315" transform="translate(-4.122 -0.091)" fill="none" stroke="#fff" stroke-linecap="round" stroke-miterlimit="10" stroke-width="4"/>
      </g>
    </g>
    <path id="Pfad_54" data-name="Pfad 54" d="M67.464,3.543C47.8-7.9,33.733,12.042,33.733,12.042S19.665-7.9,0,3.543" transform="matrix(0.974, -0.225, 0.225, 0.974, 252.414, 218.261)" fill="none" stroke="#fff" stroke-linecap="round" stroke-miterlimit="10" stroke-width="4"/>
  </g>
</svg>
